Coordinates
version=1
nRows=19
nColumns=34
inDegrees=yes

Units are S.I. units (second, meters, Newtons, ...)
If the header above contains a line with 'inDegrees', this indicates whether rotational values are in degrees (yes) or radians (no).

endheader
time	pelvis_tilt	pelvis_list	pelvis_rotation	pelvis_tx	pelvis_ty	pelvis_tz	hip_flexion_r	hip_adduction_r	hip_rotation_r	knee_angle_r	ankle_angle_r	subtalar_angle_r	mtp_angle_r	hip_flexion_l	hip_adduction_l	hip_rotation_l	knee_angle_l	ankle_angle_l	subtalar_angle_l	mtp_angle_l	lumbar_extension	lumbar_bending	lumbar_rotation	arm_flex_r	arm_add_r	arm_rot_r	elbow_flex_r	pro_sup_r	arm_flex_l	arm_add_l	arm_rot_l	elbow_flex_l	pro_sup_l
      3.65000000	    -13.73353140	     -1.70392425	    -12.47875408	     -9.09048994	      1.31347002	      1.02181516	     -2.56906377	    -10.93380217	     -8.95434773	      0.00000000	     21.00309845	     35.00000000	      0.00000000	      0.39893242	      1.01103632	    -27.82768788	     10.24389756	     17.51141885	      1.40579040	      0.00000000	     31.95275914	      0.85269667	     39.18173818	    -72.46921054	    -42.46700090	    -96.34120504	    117.13456100	     55.85991015	     92.57152933	      2.35152076	    137.56174495	     28.53849038	     25.27780150
      3.65416670	    -14.13585375	     -1.43995785	    -13.02409016	     -9.08586620	      1.31204631	      1.02255643	     -2.28074726	    -11.18001738	     -8.79781165	      0.00000000	     21.24304214	     35.00000000	      0.00000000	      0.16200933	      1.45806913	    -28.49478118	      9.37313283	     17.25648860	      1.79576986	      0.00000000	     32.45430936	      0.77008369	     37.75305982	    -72.85742672	    -47.48069629	    -96.42226828	    115.72880457	     55.66153718	     93.43376706	      1.86966885	    140.54611724	     26.01991774	     24.37316923
      3.65833330	    -14.45143131	     -1.23770240	    -13.53342315	     -9.08215493	      1.31082159	      1.02310235	     -2.05159133	    -11.36664287	     -8.57758534	      0.00000000	     21.47022400	     35.00000000	      0.00000000	     -0.04460716	      1.82169378	    -29.15558403	      8.61714317	     17.15507151	      2.08260119	      0.00000000	     32.80928323	      0.87270301	     35.97946242	    -73.65336695	    -54.15553538	    -96.96898104	    113.22100903	     55.83307194	     94.59107646	      0.47797281	    142.90238022	     24.96754466	     23.38351825
      3.66250000	    -14.60591532	     -1.04488962	    -13.87740551	     -9.07968943	      1.31021938	      1.02365435	     -1.95530050	    -11.55232674	     -8.31999422	      0.00000000	     21.66478551	     35.00000000	      0.00000000	     -0.24464091	      2.18974097	    -29.28887717	      7.94210477	     16.86444593	      1.64833734	      0.00000000	     34.19061503	      0.86581015	     31.25191404	    -65.30210796	    -67.37812238	    -88.04674002	    105.96128039	     58.27504527	     95.91877246	     -3.05641703	    149.80370576	     25.82673791	     18.56708278
      3.66666670	    -14.77107532	     -1.01487598	    -14.21935327	     -9.07762560	      1.30938769	      1.02369820	     -1.84997338	    -11.58454589	     -8.14944351	      0.00000000	     21.70647543	     35.00000000	      0.00000000	     -0.38943692	      2.30791086	    -30.19161215	      7.44426749	     16.93791078	      2.58572002	      0.00000000	     34.37423640	      1.82730284	     28.56894746	    -65.62878887	    -77.04144941	    -87.16448236	    101.22874904	     59.06582682	     96.30906474	     -5.95773022	    151.02061940	     24.65204199	     16.82013282
      3.67083330	    -14.64955678	     -0.87085222	    -14.46998854	     -9.07608813	      1.30871222	      1.02353281	     -2.01276868	    -11.82347812	     -8.13148179	      0.00000000	     21.99551927	     35.00000000	      0.00000000	     -0.80217493	      2.66249958	    -30.98450071	      6.83538828	     16.84069620	      3.32828767	      0.00000000	     34.72632524	      3.09760123	     24.67950695	    -66.07815296	    -90.50657171	    -84.05190800	     93.46045077	     59.91139045	     96.56801044	    -10.54506779	    152.67564002	     25.38106819	     15.10609574
      3.67500000	    -14.63116986	     -0.51923504	    -14.34223518	     -9.07609288	      1.30897334	      1.02471785	     -2.03064645	    -12.09777316	     -8.31688968	      0.00000000	     22.11986261	     35.00000000	      0.00000000	     -0.76964652	      2.98663238	    -31.04916737	      6.56737682	     16.48560647	      3.36686638	      0.00000000	     38.28444329	      7.42101307	      6.17591625	    -87.02475695	   -136.05471109	   -103.48321977	     59.15994633	     60.60887141	     91.36789112	    -35.35688609	    141.03320496	     31.04650345	      8.77426031
      3.67916670	    -14.73503167	     -0.37996499	    -14.48490255	     -9.07564514	      1.30867715	      1.02485576	     -1.88988314	    -12.22595123	     -8.24821623	      0.00000000	     22.23287345	     35.00000000	      0.00000000	     -0.73359501	      3.16801785	    -31.50240249	      6.26439034	     16.25385125	      3.62498961	      0.00000000	     37.66146213	      7.77497449	      6.96282370	    -83.00433207	   -138.05993198	    -98.25524557	     55.70638678	     62.39403296	     93.15179005	    -34.96383074	    142.01214021	     30.57425259	     10.15970028
      3.68333330	    -14.66177068	     -0.25683313	    -14.65105786	     -9.07585844	      1.30883225	      1.02507382	     -1.87545530	    -12.37928961	     -8.10913952	      0.00000000	     22.21484315	     35.00000000	      0.00000000	     -0.83954357	      3.37679299	    -31.73201809	      6.00929529	     16.04965637	      3.58347220	      0.00000000	     36.88302359	      7.73669471	      8.37783622	    -81.14689813	   -138.43286766	    -97.55941816	     53.74891787	     62.52985343	     95.18007640	    -33.91115930	    141.69277506	     30.70655835	     10.38802648
      3.68750000	    -14.76368059	     -0.18393465	    -14.87927548	     -9.07645521	      1.30851259	      1.02531090	     -1.62108151	    -12.43373919	     -7.95298948	      0.00000000	     22.17434064	     35.00000000	      0.00000000	     -0.72473026	      3.44776762	    -32.15999372	      5.88463497	     15.83456313	      3.81056213	      0.00000000	     36.29436324	      8.33986869	      8.94385709	    -76.09364833	   -140.51672487	    -89.04616903	     51.50393287	     63.48113222	     97.17899333	    -34.19572057	    143.00219685	     31.89955497	     11.94074921
      3.69166670	    -14.63523539	     -0.07120055	    -15.22326799	     -9.07779116	      1.30914049	      1.02586629	     -1.49445310	    -12.57892395	     -7.58389407	      0.00000000	     22.08479201	     35.00000000	      0.00000000	     -0.82949093	      3.63330265	    -32.45916249	      5.72781581	     15.63744638	      3.69772652	      0.00000000	     35.69908596	      8.36535048	     10.35099844	    -74.49423358	   -140.76554385	    -88.01223974	     50.03053860	     63.44949322	     98.69162690	    -33.19444884	    142.54530595	     32.08133695	     12.18169894
      3.69583330	    -14.63883081	      0.00615690	    -15.46653865	     -9.07957785	      1.30954497	      1.02627281	     -1.21744595	    -12.63304420	     -7.37615904	      0.00000000	     21.92936253	     35.00000000	      0.00000000	     -0.72315970	      3.69021129	    -32.79556515	      5.74958910	     15.49497100	      4.05052822	      0.00000000	     35.14197156	      8.73976568	     11.32205430	    -70.01762491	   -141.92136632	    -79.63102415	     49.35171054	     63.64645765	    100.22123556	    -33.10763799	    142.34305875	     33.22153268	     13.54691102
      3.70000000	    -14.49672962	      0.01915582	    -15.95261052	     -9.08226043	      1.31052715	      1.02725493	     -0.96546655	    -12.62688842	     -6.82148862	      0.00000000	     21.77389972	     35.00000000	      0.00000000	     -0.80935437	      3.73821478	    -33.23068582	      5.65669630	     15.01199600	      3.73059321	      0.00000000	     34.68123947	      9.01837390	     12.70019698	    -68.85391680	   -142.23043693	    -78.84638981	     48.24683466	     63.45810501	    101.20008712	    -32.28165360	    141.74675447	     33.41916470	     13.81641294
      3.70416670	    -14.40693631	      0.03012138	    -16.23389586	     -9.08557319	      1.31156958	      1.02809551	     -0.67772459	    -12.57308726	     -6.52876251	      0.00000000	     21.64464507	     35.00000000	      0.00000000	     -0.74001918	      3.68829564	    -33.74477301	      5.75365133	     14.63789242	      3.95870750	      0.00000000	     34.12634048	      9.43803568	     13.90302437	    -65.50305673	   -143.30624051	    -72.02472396	     47.58484230	     62.77032050	    102.10537019	    -32.27824832	    139.74276234	     34.40415258	     15.75133240
      3.70833330	    -14.21130256	      0.06015448	    -16.46352461	     -9.08980892	      1.31337427	      1.02923629	     -0.45170523	    -12.52160405	     -6.16975446	      0.00000000	     21.40516850	     35.00000000	      0.00000000	     -0.73267032	      3.66158453	    -34.11073663	      5.83914667	     14.09515957	      3.86703704	      0.00000000	     33.78467719	      9.41637704	     15.37840580	    -65.10963968	   -143.26025559	    -71.62773811	     46.17612560	     62.52550056	    102.99337070	    -31.22904781	    138.95636860	     34.92660287	     16.11692226
      3.71250000	    -14.02743432	      0.07867095	    -16.56275497	     -9.09493043	      1.31474131	      1.03059168	     -0.22198982	    -12.41335940	     -5.88755816	      0.00000000	     21.23011021	     35.00000000	      0.00000000	     -0.64204131	      3.54759487	    -34.62484689	      6.02790410	     13.52792012	      4.00283567	      0.00000000	     33.47034197	      9.32297186	     16.89216435	    -64.72662863	   -143.08934354	    -70.87122109	     44.71676934	     62.38863744	    103.99224752	    -30.17060599	    138.05913743	     35.73612469	     16.60755588
      3.71666670	    -13.81483192	      0.08229697	    -16.52941824	     -9.10074008	      1.31621090	      1.03209732	     -0.04198835	    -12.26190431	     -5.67465048	      0.00000000	     21.09736885	     35.00000000	      0.00000000	     -0.52101834	      3.35443575	    -35.23925327	      6.31345094	     12.94123612	      4.29216324	      0.00000000	     33.13942146	      9.14719268	     18.40390027	    -64.38728952	   -142.80299066	    -69.99315308	     43.24307487	     62.33071154	    105.13471481	    -29.12454958	    137.10212830	     36.79708783	     17.25616946
      3.72083330	    -13.58739281	      0.06752409	    -16.35305959	     -9.10703866	      1.31757349	      1.03365831	      0.08566407	    -12.07105530	     -5.54067520	      0.00000000	     21.01004805	     35.00000000	      0.00000000	     -0.36407189	      3.08288662	    -35.91290666	      6.68859133	     12.34310730	      4.68457644	      0.00000000	     32.81091089	      8.90919323	     19.83335703	    -64.07916849	   -142.39718292	    -69.22134650	     41.83909111	     62.32840096	    106.44088273	    -28.14415989	    136.18231739	     38.05216233	     18.04894708
      3.72500000	    -13.38840929	      0.10668236	    -15.98777593	     -9.11337998	      1.31870592	      1.03500297	      0.19549629	    -11.93015390	     -5.57640213	      0.00000000	     21.12798498	     35.00000000	      0.00000000	     -0.10472849	      2.82570029	    -36.39135116	      7.16320994	     11.80292672	      4.84543435	      0.00000000	     32.22833658	      8.87564729	     20.50293009	    -62.60247858	   -143.36787989	    -65.80837922	     40.49495439	     62.07630593	    107.94922509	    -29.64298893	    131.62461775	     40.78277971	     31.64982548
